<svg width="10" height="12" viewBox="0 0 10 12" fill="none" xmlns="http://www.w3.org/2000/svg">
<path fill-rule="evenodd" clip-rule="evenodd" d="M10 2C10 1.77908 9.82092 1.6 9.6 1.6H7.5123L7.33954 0.908958C7.206 0.374756 6.72602 0 6.17538 0H3.82462C3.27398 0 2.794 0.374756 2.66044 0.908958L2.48768 1.6H0.4C0.179086 1.6 0 1.77908 0 2C0 2.22092 0.179086 2.4 0.4 2.4H0.63194L1.34026 10.8997C1.39208 11.5216 1.912 12 2.5361 12H7.4639C8.088 12 8.60792 11.5216 8.65974 10.8997L9.36806 2.4H9.6C9.82092 2.4 10 2.22092 10 2ZM6.56344 1.10299L6.68768 1.6H3.3123L3.43656 1.10299C3.48108 0.924918 3.64108 0.8 3.82462 0.8H6.17538C6.35892 0.8 6.51892 0.92492 6.56344 1.10299ZM3.19882 4.16932C3.18188 3.94906 2.98958 3.78424 2.76932 3.80118C2.54906 3.81812 2.38422 4.01042 2.40118 4.23068L2.80118 9.43068C2.81812 9.65094 3.01042 9.81576 3.23068 9.79882C3.45094 9.78188 3.61576 9.58958 3.59882 9.36932L3.19882 4.16932ZM7.59882 4.23068C7.61576 4.01042 7.45094 3.81812 7.23068 3.80118C7.01042 3.78424 6.81812 3.94906 6.80118 4.16932L6.40118 9.36932C6.38424 9.58958 6.54906 9.78188 6.76932 9.79882C6.98958 9.81576 7.18188 9.65094 7.19882 9.43068L7.59882 4.23068ZM5.4 4.2C5.4 3.97908 5.2209 3.8 5 3.8C4.77908 3.8 4.6 3.97908 4.6 4.2V9.4C4.6 9.6209 4.77908 9.8 5 9.8C5.2209 9.8 5.4 9.6209 5.4 9.4V4.2Z" fill="#B1B1B1"/>
</svg>
