<svg width="10" height="10" viewBox="0 0 10 10" fill="none" xmlns="http://www.w3.org/2000/svg">
<path d="M9.57939 0H2.57624C2.35542 0 2.16614 0.178759 2.16614 0.410095V2.17666H0.410095C0.189274 2.17666 0 2.35542 0 2.58675V9.5899C0 9.81073 0.178759 10 0.410095 10H7.41325C7.63407 10 7.82334 9.82124 7.82334 9.5899V7.82334H9.5899C9.81073 7.82334 10 7.64458 10 7.41325V0.410095C9.98948 0.178759 9.81073 0 9.57939 0ZM5.7939 6.47739C5.7939 6.58254 5.70978 6.66667 5.60463 6.66667H4.50053V7.77077C4.50053 7.87592 4.4164 7.96004 4.31125 7.96004H3.52261C3.41746 7.96004 3.33333 7.87592 3.33333 7.77077V6.66667H2.21872C2.11356 6.66667 2.02944 6.58254 2.02944 6.47739V5.68875C2.02944 5.5836 2.11356 5.49947 2.21872 5.49947H3.32282V4.39537C3.32282 4.29022 3.40694 4.2061 3.51209 4.2061H4.30074C4.40589 4.2061 4.49001 4.29022 4.49001 4.39537V5.49947H5.59411C5.69926 5.49947 5.78339 5.5836 5.78339 5.68875V6.47739H5.7939ZM9.17981 7.00315H7.82334V2.57624C7.82334 2.35542 7.64458 2.16614 7.41325 2.16614H2.98633V0.809674H9.17981V7.00315Z" fill="#B1B1B1"/>
</svg>
