<svg width="10" height="12" viewBox="0 0 10 12" fill="none" xmlns="http://www.w3.org/2000/svg">
<path d="M8.00003 5.08329C7.06942 5.08329 6.29391 5.66931 6.07086 6.45829H5V6.46021L4.99895 6.45925C3.62104 6.45925 2.50533 5.43694 2.49992 4.17565V4.10181C3.36123 3.89735 3.99994 3.18661 3.99994 2.33343C3.99994 1.32087 3.10443 0.5 1.99997 0.5C0.895509 0.5 0 1.32088 0 2.33329C0 3.18648 0.638706 3.89721 1.50002 4.10168V7.89819C0.638706 8.10265 0 8.81339 0 9.66658C0 10.6791 0.895509 11.5 1.99997 11.5C3.10443 11.5 3.99994 10.6791 3.99994 9.66671C3.99994 8.81353 3.36123 8.10279 2.49992 7.89832V6.41085C3.13518 7.0054 4.01959 7.375 4.99895 7.375L5 7.37404V7.375H6.07086C6.29391 8.16411 7.06942 8.75 8.00003 8.75C9.10449 8.75 10 7.92913 10 6.91671C10 5.9043 9.10449 5.08329 8.00003 5.08329Z" fill="#B1B1B1"/>
</svg>
