<svg width="10" height="10" viewBox="0 0 10 10" fill="none" xmlns="http://www.w3.org/2000/svg">
<path d="M5.94464 6.11858H5.88964L4.44464 5.95858C4.33237 5.94575 4.22776 5.89527 4.14785 5.81536C4.06795 5.73545 4.01747 5.63084 4.00464 5.51856L3.83964 4.07351C3.83326 3.99749 3.84437 3.92102 3.8721 3.84995C3.89983 3.77888 3.94346 3.7151 3.99964 3.6635L7.49964 0.18837C7.59332 0.0952415 7.72005 0.0429687 7.85214 0.0429688C7.98423 0.0429688 8.11096 0.0952415 8.20464 0.18837L9.80964 1.79343C9.90276 1.88711 9.95504 2.01384 9.95504 2.14594C9.95504 2.27804 9.90276 2.40477 9.80964 2.49845L6.33464 5.99858C6.28172 6.04488 6.21964 6.0795 6.15244 6.10018C6.08524 6.12086 6.01443 6.12713 5.94464 6.11858ZM4.94464 5.00354L5.74964 5.09355L8.69964 2.14344L7.81464 1.24841L4.86464 4.19851L4.94464 5.00354Z" fill="#B1B1B1"/>
<path d="M8.5 9.95721H5C4.86739 9.95721 4.74021 9.90453 4.64645 9.81076C4.55268 9.71699 4.5 9.58981 4.5 9.45719C4.5 9.32458 4.55268 9.1974 4.64645 9.10363C4.74021 9.00986 4.86739 8.95718 5 8.95718H8.5C8.63261 8.95718 8.75979 8.9045 8.85355 8.81072C8.94732 8.71695 9 8.58977 9 8.45716C9 8.32454 8.94732 8.19736 8.85355 8.10359C8.75979 8.00982 8.63261 7.95714 8.5 7.95714H1.5C1.10218 7.95714 0.720644 7.7991 0.43934 7.51778C0.158035 7.23647 0 6.85492 0 6.45709C0 6.05925 0.158035 5.6777 0.43934 5.39639C0.720644 5.11507 1.10218 4.95703 1.5 4.95703H2.5C2.63261 4.95703 2.75979 5.00971 2.85355 5.10348C2.94732 5.19725 3 5.32444 3 5.45705C3 5.58966 2.94732 5.71684 2.85355 5.81062C2.75979 5.90439 2.63261 5.95707 2.5 5.95707H1.5C1.36739 5.95707 1.24021 6.00975 1.14645 6.10352C1.05268 6.19729 1 6.32447 1 6.45709C1 6.5897 1.05268 6.71688 1.14645 6.81065C1.24021 6.90442 1.36739 6.9571 1.5 6.9571H8.5C8.89782 6.9571 9.27936 7.11514 9.56066 7.39646C9.84196 7.67777 10 8.05932 10 8.45716C10 8.855 9.84196 9.23654 9.56066 9.51786C9.27936 9.79917 8.89782 9.95721 8.5 9.95721Z" fill="#B1B1B1"/>
</svg>
