<svg width="18" height="14" viewBox="0 0 18 14" fill="none" xmlns="http://www.w3.org/2000/svg">
<path d="M0.0366022 6.85646C0.0895542 6.75785 0.191807 6.69576 0.305014 6.69576H1.84184C2.00313 2.97779 5.06948 0 8.82604 0C10.8102 0 12.5966 0.836361 13.8711 2.1676L12.8279 3.73258C11.879 2.57117 10.4389 1.82612 8.82604 1.82612C6.07618 1.82612 3.82663 3.98458 3.66778 6.69576L5.17417 6.69576C5.28738 6.69576 5.38963 6.75785 5.44258 6.85646C5.49493 6.95507 5.48884 7.07559 5.42737 7.16872L2.99279 10.821C2.93619 10.9062 2.84124 10.9567 2.73959 10.9567C2.63795 10.9567 2.543 10.9062 2.4864 10.821L0.051818 7.16872C-0.0102637 7.07559 -0.0157413 6.95507 0.0366022 6.85646Z" fill="#444444"/>
<path d="M8.8231 12.1764C11.573 12.1764 13.8225 10.018 13.9814 7.3068H12.475C12.4707 7.3068 12.4671 7.30619 12.4628 7.3068C12.2948 7.3068 12.1585 7.17045 12.1585 7.00245C12.1585 6.91175 12.198 6.83018 12.2613 6.77418L14.6564 3.1816C14.7696 3.01238 15.0495 3.01238 15.1627 3.1816L17.5973 6.83383C17.6594 6.92697 17.6655 7.04749 17.6125 7.1461C17.5596 7.24471 17.4567 7.3068 17.3441 7.3068H15.8073C15.646 11.0242 12.5803 14.0026 8.8231 14.0026C6.83892 14.0026 5.05377 13.1662 3.77805 11.835L4.82126 10.27C5.77014 11.4308 7.21019 12.1764 8.8231 12.1764Z" fill="#444444"/>
</svg>
