<svg width="13" height="9" viewBox="0 0 13 9" fill="none" xmlns="http://www.w3.org/2000/svg">
<path d="M5.91402 8.23C5.99027 8.31486 6.08404 8.38282 6.1891 8.42937C6.29417 8.47593 6.40812 8.5 6.52339 8.5C6.63867 8.5 6.75262 8.47593 6.85769 8.42937C6.96275 8.38282 7.05652 8.31486 7.13277 8.23L12.8203 1.84996C12.9516 1.68992 13.0149 1.4863 12.997 1.28156C12.9791 1.07682 12.8814 0.886757 12.7243 0.751003C12.5671 0.615248 12.3626 0.54428 12.1534 0.552896C11.9443 0.561513 11.7465 0.649048 11.6015 0.797251L6.52339 6.49143L1.44527 0.797249C1.37647 0.713406 1.29109 0.644104 1.19427 0.593519C1.09745 0.542934 0.9912 0.512115 0.881921 0.502917C0.772641 0.493718 0.662595 0.506332 0.558416 0.539998C0.454236 0.573665 0.358079 0.627687 0.27574 0.698808C0.193402 0.769929 0.126585 0.856677 0.0793186 0.953823C0.0320521 1.05097 0.00531332 1.1565 0.000714435 1.26407C-0.00388445 1.37163 0.0137517 1.47899 0.0525595 1.57968C0.0913673 1.68037 0.150543 1.77231 0.226522 1.84995L5.91402 8.23Z" fill="#4B4B4B"/>
</svg>
